<svg xmlns="http://www.w3.org/2000/svg" width="24" height="24" viewBox="0 0 24 24">
  <g id="Group_7848" data-name="Group 7848" transform="translate(-2050.653 -483.497)">
    <g id="Group_7847" data-name="Group 7847" transform="translate(2054.249 487.101)">
      <path id="Path_5540" data-name="Path 5540" d="M2062.05,486.5a8.4,8.4,0,0,0-8.4,8.4,8.259,8.259,0,0,0,1.308,4.476l-1.308,3.924,4.128-1.176a8.4,8.4,0,1,0,4.272-15.624Zm1.1,13.764h-2.231v-1.906h2.231Zm2.093-6.132a6.123,6.123,0,0,1-1.224,1.392,5.411,5.411,0,0,0-.624.612,1.148,1.148,0,0,0-.156.324,4.318,4.318,0,0,0-.072.84l-.012.588h-2.232l-.024-.564c-.012-.168-.012-.288-.012-.372a3.561,3.561,0,0,1,.228-1.356,2.941,2.941,0,0,1,.54-.888,5.965,5.965,0,0,1,.876-.852,3.066,3.066,0,0,0,.612-.66.637.637,0,0,0,.1-.372.93.93,0,0,0-.324-.708,1.2,1.2,0,0,0-1.608-.036,1.765,1.765,0,0,0-.444,1.044l-.1.576-2.316-.288.072-.588a3.7,3.7,0,0,1,6.072-2.268,2.915,2.915,0,0,1,.648,3.576Z" transform="translate(-2053.65 -486.5)" fill="#fff"/>
    </g>
    <rect id="Rectangle_1709" data-name="Rectangle 1709" width="24" height="24" transform="translate(2050.653 483.497)" fill="none"/>
  </g>
</svg>
