<svg xmlns="http://www.w3.org/2000/svg" width="24" height="24" viewBox="0 0 24 24">
  <g id="Group_7853" data-name="Group 7853" transform="translate(-2159.966 -483.497)">
    <rect id="Rectangle_1712" data-name="Rectangle 1712" width="24" height="24" transform="translate(2159.966 483.497)" fill="none"/>
    <path id="Path_5544" data-name="Path 5544" d="M2179.766,492.727V493.8h-2.193v8.765a.727.727,0,0,1-.729.731h-2.922v-4.748a2.557,2.557,0,0,0-5.113,0V503.3h-2.922a.728.728,0,0,1-.729-.731V493.8h-2.191v-1.074a.717.717,0,0,1,.313-.6l8.087-5.632,8.085,5.632A.718.718,0,0,1,2179.766,492.727Z" transform="translate(0.6 0.6)" fill="#fff"/>
  </g>
</svg>
