<svg xmlns="http://www.w3.org/2000/svg" width="24" height="24" viewBox="0 0 24 24">
  <g id="Group_7850" data-name="Group 7850" transform="translate(-2087.786 -483.497)">
    <path id="Path_5541" data-name="Path 5541" d="M2106.956,498.558c-1.851-.534-2.211-3.569-2.575-8.012-.2-2.42-2.79-4.049-5.195-4.049s-5,1.628-5.195,4.049c-.364,4.444-.725,7.478-2.574,8.012a.832.832,0,0,0-.631.788v1.724a.8.8,0,0,0,.8.81h5.648a2.051,2.051,0,0,0,3.9,0h5.648a.8.8,0,0,0,.8-.81v-1.724A.832.832,0,0,0,2106.956,498.558Z" transform="translate(0.6 0.6)" fill="#fff"/>
    <rect id="Rectangle_1710" data-name="Rectangle 1710" width="24" height="24" transform="translate(2087.786 483.497)" fill="none"/>
  </g>
</svg>
