<svg xmlns="http://www.w3.org/2000/svg" width="25.392" height="25.763" viewBox="0 0 25.392 25.763">
  <g id="Group_1409" data-name="Group 1409" transform="translate(1 1)">
    <path id="Path_90" data-name="Path 90" d="M.5,7.223v-3.8A2.918,2.918,0,0,1,3.418.5H7.036" transform="translate(-0.5 -0.5)" fill="none" stroke="#a5adba" stroke-linecap="round" stroke-linejoin="round" stroke-width="2"/>
    <path id="Path_91" data-name="Path 91" d="M74.137,7.223v-3.8A2.918,2.918,0,0,0,71.219.5H67.6" transform="translate(-50.744 -0.5)" fill="none" stroke="#a5adba" stroke-linecap="round" stroke-linejoin="round" stroke-width="2"/>
    <path id="Path_92" data-name="Path 92" d="M74.137,68.331v3.8a2.918,2.918,0,0,1-2.918,2.918H67.6" transform="translate(-50.744 -51.291)" fill="none" stroke="#a5adba" stroke-linecap="round" stroke-linejoin="round" stroke-width="2"/>
    <path id="Path_93" data-name="Path 93" d="M.5,68.331v3.8a2.918,2.918,0,0,0,2.918,2.918H7.036" transform="translate(-0.5 -51.291)" fill="none" stroke="#a5adba" stroke-linecap="round" stroke-linejoin="round" stroke-width="2"/>
    <rect id="Rectangle_3410" data-name="Rectangle 3410" width="4.785" height="4.785" transform="translate(3.268 3.362)" fill="none" stroke="#a5adba" stroke-linecap="round" stroke-linejoin="round" stroke-width="2"/>
    <rect id="Rectangle_3411" data-name="Rectangle 3411" width="4.785" height="4.785" transform="translate(15.339 3.362)" fill="none" stroke="#a5adba" stroke-linecap="round" stroke-linejoin="round" stroke-width="2"/>
    <rect id="Rectangle_3412" data-name="Rectangle 3412" width="4.785" height="4.785" transform="translate(3.268 15.616)" fill="none" stroke="#a5adba" stroke-linecap="round" stroke-linejoin="round" stroke-width="2"/>
    <rect id="Rectangle_3413" data-name="Rectangle 3413" width="4.785" height="4.785" transform="translate(15.339 15.616)" fill="none" stroke="#a5adba" stroke-linecap="round" stroke-linejoin="round" stroke-width="2"/>
    <path id="Path_94" data-name="Path 94" d="M36.857,17.783v4.162H34.522v3.819h-6.7" transform="translate(-24.158 -13.627)" fill="none" stroke="#a5adba" stroke-linecap="round" stroke-linejoin="round" stroke-width="2"/>
    <path id="Path_95" data-name="Path 95" d="M56.809,42.685H59.52v2.661h2.774" transform="translate(-42.663 -32.088)" fill="none" stroke="#a5adba" stroke-linecap="round" stroke-linejoin="round" stroke-width="2"/>
    <path id="Path_96" data-name="Path 96" d="M44.925,54.207v4.437H42.871v2.219" transform="translate(-32.227 -40.108)" fill="none" stroke="#a5adba" stroke-linecap="round" stroke-linejoin="round" stroke-width="2"/>
  </g>
</svg>
