<svg xmlns="http://www.w3.org/2000/svg" width="83" height="83" viewBox="0 0 83 83">
  <g id="Group_7910" data-name="Group 7910" transform="translate(-300 -29)">
    <circle id="Ellipse_445" data-name="Ellipse 445" cx="34.497" cy="34.497" r="34.497" transform="translate(300 44.852) rotate(-13.283)" fill="#a8a8a8"/>
    <path id="Path_5646" data-name="Path 5646" d="M110.408,382.348a28.515,28.515,0,0,1,7.91,3.14l-1.754,1.754a34.492,34.492,0,0,1-47,0l-1.753-1.753a28.536,28.536,0,0,1,7.911-3.14c4.463-1.28,5.817-3.22,6.587-4.5s3.8-2.185,3.8-2.185l-.027-1.653c-2.868-2.4-5.1-8.771-5.1-8.771-1.567,1.12-1.886-5.918-1.594-6.985s1.858-.007,1.858-.007c-1.434-4.906-.8-12.371-.8-12.371,3.983-5.439,12.614-5.28,12.614-5.28s8.631-.16,12.615,5.28c0,0,.638,7.465-.8,12.371,0,0,1.566-1.059,1.858.007s-.026,8.105-1.594,6.985c0,0-2.231,6.372-5.1,8.771l-.026,1.653s3.027.906,3.8,2.185S105.946,381.069,110.408,382.348Z" transform="translate(248.434 -291.488)" fill="#efefef"/>
  </g>
</svg>
