<svg xmlns="http://www.w3.org/2000/svg" width="320" height="220" viewBox="0 0 320 220">
  <g id="Group_7917" data-name="Group 7917" transform="translate(-28 -114)">
    <g id="Button" transform="translate(28 114)" fill="#fff" stroke="#cecece" stroke-width="1">
      <rect width="320" height="220" rx="10" stroke="none"/>
      <rect x="0.5" y="0.5" width="319" height="219" rx="9.5" fill="none"/>
    </g>
    <path id="Button-2" data-name="Button" d="M10,0H310a10,10,0,0,1,10,10V60a0,0,0,0,1,0,0H0a0,0,0,0,1,0,0V10A10,10,0,0,1,10,0Z" transform="translate(28 114)" fill="#8b3cce"/>
    <g id="Group_7908" data-name="Group 7908" transform="translate(-549.745 -402.517)" opacity="0.15" style="mix-blend-mode: overlay;isolation: isolate">
      <g id="Group_7871" data-name="Group 7871" transform="translate(727.659 527.982)">
        <path id="Path_5558" data-name="Path 5558" d="M801.036,556.687a1.4,1.4,0,1,0-1.4-1.4A1.4,1.4,0,0,0,801.036,556.687Z" transform="translate(-778.381 -543.239)" fill="#fff"/>
        <path id="Path_5559" data-name="Path 5559" d="M791.457,580.842c.283-.073.565-.151.843-.24a15.337,15.337,0,0,0,10.707-12.828,20.319,20.319,0,0,0-4.449-15.854v-.008a4.255,4.255,0,0,0-1.693-3.393l1.9-3.116-1.569-.957,1.647-2.7-3.092-1.887-1.647,2.7-1.569-.957-14.052,23.024,1.092.667-.767,1.257.683.417-1.245,2.041,2.606,1.591,1.246-2.041.755.461.768-1.257,1.093.667,7.736-12.677a4.22,4.22,0,0,0,3.8-.056,14.063,14.063,0,0,1-1.6,15.936,13.764,13.764,0,0,1-10.224,4.617,13.538,13.538,0,0,1-3.525-.467h5.216v-3.123H771.641v3.123h2.565a18.507,18.507,0,0,0,10,5.3,3.827,3.827,0,0,0,1.013,1.507v2.235h-8.085V589.3H798.89V584.82h-8.378v-2.372A3.82,3.82,0,0,0,791.457,580.842Zm6.551,7.579H778.017V585.7H786.1v-2.512a3.795,3.795,0,0,0,3.528-.073V585.7h8.378Zm-13.156-8.654a2.94,2.94,0,1,1,2.94,2.94A2.943,2.943,0,0,1,784.852,579.767ZM772.523,574.9v-1.36h12.715v1.36Zm5.812.881a14.4,14.4,0,0,0,6.094,1.349c.207,0,.414-.008.62-.018a3.807,3.807,0,0,0-1.079,2.656c0,.125.007.248.019.371a17.656,17.656,0,0,1-8.521-4.358Zm18.658-20.569a4.276,4.276,0,0,0,1.394-2.112,19.491,19.491,0,0,1,3.748,14.545,14.487,14.487,0,0,1-10.1,12.12c-.14.044-.282.085-.424.126,0-.041.006-.081.006-.122a3.826,3.826,0,0,0-2.3-3.5,14.786,14.786,0,0,0,5.994-4.046A14.963,14.963,0,0,0,796.994,555.21Zm-17.533,13.5.787-1.289,1.1.672-.786,1.288Zm.562-2.459.308-.5,2.54,1.55-.307.5Zm-.325-1.924,13.133-21.518,1.647,1,2.261,1.38h0l.817.5-1.443,2.365a4.256,4.256,0,0,0-4.41,7.226l-7.28,11.927Zm16.349-23.258,1.586.968-1.187,1.945-1.586-.968Zm-5.13,10.839a3.381,3.381,0,1,1,3.38,3.381A3.384,3.384,0,0,1,790.916,551.912Z" transform="translate(-771.641 -539.861)" fill="#fff"/>
        <circle id="Ellipse_444" data-name="Ellipse 444" cx="1.176" cy="1.176" r="1.176" transform="translate(14.975 38.73)" fill="#fff"/>
      </g>
      <g id="Group_7875" data-name="Group 7875" transform="translate(820.902 548.901)">
        <g id="Group_7872" data-name="Group 7872" transform="translate(10.734)">
          <path id="Path_5560" data-name="Path 5560" d="M916.612,581.268l-6.476-2.608a2.478,2.478,0,0,1-1.371-3.221l2.607-6.476a2.478,2.478,0,0,1,3.221-1.372l6.477,2.608a2.477,2.477,0,0,1,1.371,3.22l-2.607,6.477A2.478,2.478,0,0,1,916.612,581.268Zm-2.446-12.617a1.334,1.334,0,0,0-1.734.739l-2.607,6.476a1.334,1.334,0,0,0,.738,1.734l6.477,2.608a1.335,1.335,0,0,0,1.734-.739l2.608-6.477a1.335,1.335,0,0,0-.739-1.734Z" transform="translate(-908.585 -567.412)" fill="#fff"/>
        </g>
        <g id="Group_7873" data-name="Group 7873" transform="translate(0 9.157)">
          <path id="Path_5561" data-name="Path 5561" d="M902.475,593.327,896,590.72a2.478,2.478,0,0,1-1.371-3.221l2.607-6.476a2.478,2.478,0,0,1,3.221-1.372l6.476,2.608a2.478,2.478,0,0,1,1.372,3.22l-2.607,6.477A2.478,2.478,0,0,1,902.475,593.327Zm-2.446-12.616a1.335,1.335,0,0,0-1.734.739l-2.607,6.476a1.334,1.334,0,0,0,.738,1.734l6.477,2.608a1.335,1.335,0,0,0,1.734-.739l2.607-6.477a1.334,1.334,0,0,0-.739-1.734Z" transform="translate(-894.448 -579.472)" fill="#fff"/>
        </g>
        <g id="Group_7874" data-name="Group 7874" transform="translate(12.246 14.087)">
          <path id="Path_5562" data-name="Path 5562" d="M918.6,599.821l-6.477-2.607a2.478,2.478,0,0,1-1.372-3.221l2.607-6.476a2.479,2.479,0,0,1,3.221-1.372l6.477,2.608a2.478,2.478,0,0,1,1.372,3.22l-2.608,6.477A2.477,2.477,0,0,1,918.6,599.821Zm-2.447-12.616a1.335,1.335,0,0,0-1.734.739l-2.607,6.476a1.334,1.334,0,0,0,.739,1.734l6.476,2.608a1.335,1.335,0,0,0,1.734-.739l2.607-6.477a1.335,1.335,0,0,0-.739-1.734Z" transform="translate(-910.576 -585.966)" fill="#fff"/>
        </g>
        <path id="Path_5563" data-name="Path 5563" d="M914.972,576.686l-1.09,1.424-1.465-.589,4.424-5.478,1.853.746-.578,7.026L916.6,579.2l.163-1.8Zm2.011-.419.144-1.482c.038-.415.113-.923.169-1.332l-.018-.008c-.242.334-.525.769-.772,1.09l-.9,1.176Z" transform="translate(-898.773 -568.527)" fill="#fff"/>
        <path id="Path_5564" data-name="Path 5564" d="M901.472,583.47a12.1,12.1,0,0,1,1.878.605,3.719,3.719,0,0,1,1.7,1.095,1.468,1.468,0,0,1,.258,1.526,1.522,1.522,0,0,1-1.566.92l-.008.018a1.685,1.685,0,0,1,.622,2.039,1.8,1.8,0,0,1-1.182,1.064,4.253,4.253,0,0,1-2.684-.424A11.7,11.7,0,0,1,899,589.6Zm.436,2.954.463.187c.742.3,1.263.153,1.45-.311s-.071-.869-.71-1.126a4.1,4.1,0,0,0-.617-.2Zm-1.115,2.771a4.753,4.753,0,0,0,.539.238c.639.257,1.305.235,1.566-.414.254-.63-.21-1.109-.914-1.392l-.482-.194Z" transform="translate(-895.544 -571.278)" fill="#fff"/>
        <path id="Path_5565" data-name="Path 5565" d="M920.143,598.117a4.3,4.3,0,0,1-1.715-.367,3.21,3.21,0,0,1-2.011-4.45,3.433,3.433,0,0,1,4.746-1.945,3.963,3.963,0,0,1,1.427.9l-.739,1.006a3.285,3.285,0,0,0-1.093-.71,2.214,2.214,0,0,0-1.643,4.11,3.806,3.806,0,0,0,1.259.27Z" transform="translate(-899.666 -573.099)" fill="#fff"/>
      </g>
      <g id="Group_7876" data-name="Group 7876" transform="translate(803.208 520.129)">
        <path id="Path_5566" data-name="Path 5566" d="M892.492,558.977c-1.7-1.685-2.28-7.775-2.363-9.994a8.888,8.888,0,0,0-7.337-8.207l-.2-8.679a2.641,2.641,0,1,0-5.268.318l.857,8.778a8.846,8.846,0,0,0-5.781,8.494c.006.3.03.7.059,1.206.136,2.351.456,7.858-1.122,9.294a.588.588,0,0,0,.2.99,25.1,25.1,0,0,0,5.633,1.153l-.185,1.2a2.728,2.728,0,0,0-1.755,2.121,2.808,2.808,0,0,0,2.41,3.149,3.023,3.023,0,0,0,.635.03,2.757,2.757,0,0,0,2.611-2.306,2.728,2.728,0,0,0-1.034-2.552l.227-1.473c.962.017,1.936,0,2.9-.059,2.435-.147,6.9-.677,9.445-2.577a.589.589,0,0,0,.063-.888Zm-9.578,2.291a31.46,31.46,0,0,1-10.2-.949c1.337-2.269,1.069-6.88.917-9.493-.027-.476-.052-.888-.057-1.161a7.7,7.7,0,0,1,15.381-.623c.012.319.3,7.367,2.259,10.224A19.4,19.4,0,0,1,882.914,561.268Zm-2.956,5.114a1.833,1.833,0,0,1-1.738,1.51,2.059,2.059,0,0,1-.436-.021,1.866,1.866,0,0,1-1.624-2.075,1.826,1.826,0,0,1,1.66-1.5l.291-1.883c.338.024.678.046,1.022.061l-.305,1.977A1.827,1.827,0,0,1,879.958,566.382Zm-1.7-34.058a1.7,1.7,0,1,1,3.392-.2l.2,8.545a8.772,8.772,0,0,0-2.752.248Z" transform="translate(-871.143 -529.518)" fill="#fff"/>
      </g>
      <g id="Group_7877" data-name="Group 7877" transform="translate(851.481 569.409)">
        <path id="Path_5567" data-name="Path 5567" d="M967.563,603.531l-11.17-8.477a3.11,3.11,0,0,0-4.353.6l-16.687,21.988a3.11,3.11,0,0,0,.6,4.353l11.171,8.478a3.11,3.11,0,0,0,4.352-.6l16.687-21.988A3.11,3.11,0,0,0,967.563,603.531ZM955.749,595.9l11.17,8.478a2.044,2.044,0,0,1,.393,2.86l-.376.5-14.423-10.946.375-.5A2.045,2.045,0,0,1,955.749,595.9Zm10.543,12.681-14.327,18.878-14.423-10.946,14.327-18.878ZM947.765,629.62l-11.171-8.478a2.044,2.044,0,0,1-.393-2.86l.7-.919,14.423,10.946-.7.919A2.043,2.043,0,0,1,947.765,629.62Z" transform="translate(-934.722 -594.423)" fill="#fff"/>
        <path id="Path_5568" data-name="Path 5568" d="M945.78,632.7c-.664-.5-1.382-.674-1.6-.382s.135.939.8,1.443,1.382.675,1.6.382S946.444,633.207,945.78,632.7Z" transform="translate(-936.982 -603.512)" fill="#fff"/>
      </g>
      <g id="Group_7878" data-name="Group 7878" transform="translate(856.044 531.196)">
        <path id="Path_5569" data-name="Path 5569" d="M956.313,557.531a3.208,3.208,0,0,1-1.58-2.786V545.7a1.61,1.61,0,0,0-1.608-1.608h-3.987a1.61,1.61,0,0,0-1.608,1.608v9.03a3.214,3.214,0,0,1-1.576,2.8,10.4,10.4,0,0,0,4.764,19.409c.138.006.276.008.414.008a10.4,10.4,0,0,0,5.181-19.415Zm-9.92.762a4.1,4.1,0,0,0,2.019-3.562V545.7a.726.726,0,0,1,.726-.726h3.987a.726.726,0,0,1,.726.726v9.044a4.092,4.092,0,0,0,2.022,3.55,9.534,9.534,0,0,1,3.7,3.879h-16.9A9.506,9.506,0,0,1,946.393,558.293Zm11.469,14.983a9.455,9.455,0,0,1-6.73,2.788c-.126,0-.253,0-.38-.008a9.517,9.517,0,0,1-8.475-13h17.7a9.482,9.482,0,0,1-2.115,10.221Z" transform="translate(-940.732 -544.093)" fill="#fff"/>
        <path id="Path_5570" data-name="Path 5570" d="M948.877,571.1a2.168,2.168,0,1,0,2.168,2.168A2.171,2.171,0,0,0,948.877,571.1Zm0,3.454a1.286,1.286,0,1,1,1.286-1.286A1.287,1.287,0,0,1,948.877,574.554Z" transform="translate(-942.171 -550.594)" fill="#fff"/>
        <path id="Path_5571" data-name="Path 5571" d="M958.973,572.261a1.617,1.617,0,1,0,1.617,1.617A1.619,1.619,0,0,0,958.973,572.261Zm0,2.352a.735.735,0,1,1,.735-.735A.736.736,0,0,1,958.973,574.613Z" transform="translate(-944.734 -550.874)" fill="#fff"/>
        <path id="Path_5572" data-name="Path 5572" d="M954.738,579.618a1.544,1.544,0,1,0,1.544,1.544A1.545,1.545,0,0,0,954.738,579.618Zm0,2.2a.661.661,0,1,1,.662-.661A.662.662,0,0,1,954.738,581.823Z" transform="translate(-943.732 -552.645)" fill="#fff"/>
      </g>
      <g id="Group_7879" data-name="Group 7879" transform="translate(591.443 527.627)">
        <path id="Path_5573" data-name="Path 5573" d="M601.7,556.085a1.5,1.5,0,0,1-1.141.081,1.459,1.459,0,0,1-.849-.743l-1.793-3.609a.553.553,0,0,0-.418-.3l-3.989-.569a1.477,1.477,0,0,1-.826-2.516l2.878-2.821a.552.552,0,0,0,.158-.49l-.692-3.971a1.477,1.477,0,0,1,2.139-1.563l3.572,1.866a.554.554,0,0,0,.5,0l3.571-1.89h0a1.477,1.477,0,0,1,2.146,1.551l-.671,3.974a.56.56,0,0,0,.161.489l2.894,2.805a1.456,1.456,0,0,1,.433,1.279,1.488,1.488,0,0,1-1.244,1.241l-3.986.591a.562.562,0,0,0-.416.3l-1.774,3.619A1.461,1.461,0,0,1,601.7,556.085ZM596.233,540.4a.548.548,0,0,0-.3.591l.692,3.971a1.473,1.473,0,0,1-.421,1.307l-2.878,2.821a.552.552,0,0,0,.31.941l3.989.57a1.474,1.474,0,0,1,1.114.8l1.793,3.609a.54.54,0,0,0,.315.278.557.557,0,0,0,.676-.281l1.774-3.619a1.5,1.5,0,0,1,1.109-.811l3.987-.591a.552.552,0,0,0,.466-.467.533.533,0,0,0-.163-.476L605.8,546.24a1.48,1.48,0,0,1-.429-1.305l.67-3.975a.553.553,0,0,0-.791-.587l-3.574,1.891h0a1.494,1.494,0,0,1-1.373,0l-3.572-1.865A.536.536,0,0,0,596.233,540.4Z" transform="translate(-592.236 -539.393)" fill="#fff"/>
      </g>
      <g id="Group_7881" data-name="Group 7881" transform="translate(716.53 537.281)">
        <path id="Path_5575" data-name="Path 5575" d="M765.459,565.774a2.271,2.271,0,0,1-.881-.383l-1.038-.742c-3.874-2.765-6.434-4.591-6.553-7.424a4.475,4.475,0,0,1,4.375-4.768,4.327,4.327,0,0,1,3.173,1.159,1.379,1.379,0,0,0,1.919-.081,4.307,4.307,0,0,1,3.064-1.421,4.862,4.862,0,0,1,1.166.089,4.475,4.475,0,0,1,3.6,4.3c.119,2.833-2.279,4.868-5.907,7.948l-.972.827A2.276,2.276,0,0,1,765.459,565.774ZM762.254,553.5a3.6,3.6,0,0,0-.85-.065,3.518,3.518,0,0,0-3.437,3.749c.1,2.354,2.5,4.07,6.144,6.667l1.04.745a1.341,1.341,0,0,0,1.614-.068l.975-.829c3.408-2.894,5.661-4.805,5.562-7.161a3.547,3.547,0,0,0-3.739-3.445,3.359,3.359,0,0,0-2.389,1.109,2.326,2.326,0,0,1-2.172.711,2.371,2.371,0,0,1-1.123-.572A3.39,3.39,0,0,0,762.254,553.5Z" transform="translate(-756.983 -552.108)" fill="#fff"/>
      </g>
      <g id="Group_7884" data-name="Group 7884" transform="translate(644.634 530.742)">
        <g id="Group_7882" data-name="Group 7882">
          <path id="Path_5576" data-name="Path 5576" d="M669.623,555.17a5.923,5.923,0,0,1-2.818-11.505,5.991,5.991,0,0,1,1.44-.169,5.922,5.922,0,0,1,1.378,11.674Zm-2.617-10.677a5.074,5.074,0,1,0,1.234-.144A5.06,5.06,0,0,0,667.006,544.493Z" transform="translate(-662.292 -543.496)" fill="#fff"/>
        </g>
        <g id="Group_7883" data-name="Group 7883" transform="translate(2.809 7.987)">
          <path id="Path_5577" data-name="Path 5577" d="M670.17,555.64a4.723,4.723,0,0,1-1.148.137,4.849,4.849,0,0,1-3.031-1.1l.54-.66a3.989,3.989,0,0,0,2.495.909,3.939,3.939,0,0,0,2.445-.834l.52.676A4.9,4.9,0,0,1,670.17,555.64Z" transform="translate(-665.991 -554.015)" fill="#fff"/>
        </g>
        <path id="Path_5578" data-name="Path 5578" d="M667.526,549.6a.546.546,0,1,1-.543-.549A.546.546,0,0,1,667.526,549.6Z" transform="translate(-663.289 -544.833)" fill="#fff"/>
        <path id="Path_5579" data-name="Path 5579" d="M673.348,549.632a.546.546,0,1,1-.543-.549A.546.546,0,0,1,673.348,549.632Z" transform="translate(-664.691 -544.841)" fill="#fff"/>
      </g>
      <g id="Group_7887" data-name="Group 7887" transform="translate(826.26 576.913)">
        <g id="Group_7885" data-name="Group 7885">
          <path id="Path_5580" data-name="Path 5580" d="M908.835,615.979a5.922,5.922,0,1,1,4.512-5.72A5.927,5.927,0,0,1,908.835,615.979ZM906.218,605.3a5.071,5.071,0,1,0,1.234-.145A5.128,5.128,0,0,0,906.218,605.3Z" transform="translate(-901.504 -604.306)" fill="#fff"/>
        </g>
        <g id="Group_7886" data-name="Group 7886" transform="translate(2.809 7.986)">
          <path id="Path_5581" data-name="Path 5581" d="M909.382,616.45a4.732,4.732,0,0,1-1.148.136,4.849,4.849,0,0,1-3.031-1.1l.54-.66a3.989,3.989,0,0,0,2.495.909,3.934,3.934,0,0,0,2.445-.834l.52.676A4.9,4.9,0,0,1,909.382,616.45Z" transform="translate(-905.203 -614.824)" fill="#fff"/>
        </g>
        <path id="Path_5582" data-name="Path 5582" d="M906.738,610.41a.546.546,0,1,1-.543-.549A.546.546,0,0,1,906.738,610.41Z" transform="translate(-902.501 -605.643)" fill="#fff"/>
        <path id="Path_5583" data-name="Path 5583" d="M912.56,610.442a.546.546,0,1,1-.543-.549A.546.546,0,0,1,912.56,610.442Z" transform="translate(-903.903 -605.651)" fill="#fff"/>
      </g>
      <path id="Path_5584" data-name="Path 5584" d="M718.289,533.321l-5.1.673a2.372,2.372,0,0,1,.259-1.4,8.317,8.317,0,0,1,1.392-1.79,10.354,10.354,0,0,0,1.4-1.708,2.041,2.041,0,0,0,.263-1.326,1.357,1.357,0,0,0-.5-.953,1.416,1.416,0,0,0-1.083-.229,1.44,1.44,0,0,0-.94.5,1.556,1.556,0,0,0-.32,1.143l-1.025.135a2.393,2.393,0,0,1,.535-1.72,2.512,2.512,0,0,1,1.667-.837,2.439,2.439,0,0,1,1.858.383,2.1,2.1,0,0,1,.83,1.465,2.5,2.5,0,0,1-.267,1.546,11.525,11.525,0,0,1-1.6,2.032q-1.223,1.327-1.2,1.667l3.72-.491Z" transform="translate(-35.486 -6.238)" fill="#fff"/>
      <path id="Path_5585" data-name="Path 5585" d="M652.1,599.656l-3.162-4.062a2.376,2.376,0,0,1,1.341-.486,8.317,8.317,0,0,1,2.249.295,10.393,10.393,0,0,0,2.18.342,2.044,2.044,0,0,0,1.278-.443,1.36,1.36,0,0,0,.569-.913,1.418,1.418,0,0,0-.351-1.05,1.445,1.445,0,0,0-.905-.559,1.559,1.559,0,0,0-1.149.3l-.635-.815a2.389,2.389,0,0,1,1.755-.408,2.509,2.509,0,0,1,1.566,1.014,2.444,2.444,0,0,1,.61,1.8,2.106,2.106,0,0,1-.844,1.457,2.505,2.505,0,0,1-1.468.552,11.565,11.565,0,0,1-2.563-.353,4.337,4.337,0,0,0-2.048-.2l2.306,2.961Z" transform="translate(-14.443 -24.388)" fill="#fff"/>
      <path id="Path_5587" data-name="Path 5587" d="M641.837,550.12a2.389,2.389,0,0,1,1.668.054,2.666,2.666,0,0,1,1.254,1.107,2.877,2.877,0,0,1,.364,2.389,3.677,3.677,0,0,1-3.874,2.487,2.751,2.751,0,0,1-1.86-1.226l1.121-.689a1.77,1.77,0,0,0,1.077.812,2.1,2.1,0,0,0,2.389-1.52,2.1,2.1,0,0,0-.325-1.543,1.842,1.842,0,0,0-1.219-.935,2.3,2.3,0,0,0-1.629.409l-.414.254-.519-.846.248-.152a1.572,1.572,0,0,0,.687-2.417,1.536,1.536,0,0,0-.945-.766,1.73,1.73,0,0,0-1.8,2.48l-1.115.684a2.728,2.728,0,0,1-.184-2.132,3.1,3.1,0,0,1,1.37-1.612,2.992,2.992,0,0,1,2.171-.489,2.4,2.4,0,0,1,1.635,1.17,2.276,2.276,0,0,1,.336,1.2A2.155,2.155,0,0,1,641.837,550.12Z" transform="translate(-11.479 -13.459)" fill="#fff"/>
      <path id="Path_5588" data-name="Path 5588" d="M728.1,632.321a3.491,3.491,0,0,1,2.253-.768,3.727,3.727,0,0,1,2.673,1.036,3.785,3.785,0,0,1,1.177,2.858,4.429,4.429,0,0,1-1.086,3.137,3.915,3.915,0,0,1-3.006,1.285,4.18,4.18,0,0,1-2.661-.815,3.532,3.532,0,0,1-1.314-2.535l1.623-.027a2.433,2.433,0,0,0,.8,1.633,2.3,2.3,0,0,0,1.536.512,2.262,2.262,0,0,0,1.822-.887,3.24,3.24,0,0,0,.669-2.134,2.788,2.788,0,0,0-.748-2.011,2.467,2.467,0,0,0-1.868-.711,2.867,2.867,0,0,0-2.2,1.043l-1.232.02.413-6.451,6.543-.1.023,1.449-5.2.083Z" transform="translate(-33.026 -32.952)" fill="#fff"/>
      <g id="Group_7888" data-name="Group 7888" transform="translate(731.672 523.173)">
        <path id="Path_5590" data-name="Path 5590" d="M781.217,541.433l.273-1.575.53-.279-.346,2.061q-.584,3.6-1.964,4.2-.657.29-1.111-.737A4.9,4.9,0,0,0,781.217,541.433Zm-2.858-5.35a1.8,1.8,0,0,1,1.793.209,5.853,5.853,0,0,1,1.653,1.7q.737,1.106,1.418,2.236,1.639,2.707,2.493,2.33a1.466,1.466,0,0,0,.683-.881,4.4,4.4,0,0,0,.225-1.745l.383-.079q.082,2.736-1.429,3.4a1.8,1.8,0,0,1-1.793-.209,5.843,5.843,0,0,1-1.653-1.7q-.737-1.106-1.418-2.236-1.639-2.707-2.493-2.33a1.464,1.464,0,0,0-.684.881,4.372,4.372,0,0,0-.224,1.746l-.384.078Q776.849,536.751,778.36,536.083ZM782.5,538l-.273,1.574-.531.28.346-2.061q.584-3.6,1.964-4.206.656-.289,1.11.737A4.9,4.9,0,0,0,782.5,538Z" transform="translate(-776.926 -533.527)" fill="#fff"/>
      </g>
      <g id="Group_7889" data-name="Group 7889" transform="translate(647.837 593.32)">
        <path id="Path_5591" data-name="Path 5591" d="M670.8,633.82l.273-1.575.531-.279-.347,2.061q-.584,3.6-1.963,4.2-.657.29-1.11-.736A4.9,4.9,0,0,0,670.8,633.82Zm-2.857-5.35a1.8,1.8,0,0,1,1.793.209,5.852,5.852,0,0,1,1.653,1.7q.736,1.106,1.418,2.236,1.639,2.707,2.493,2.33a1.469,1.469,0,0,0,.684-.881,4.4,4.4,0,0,0,.224-1.746l.383-.079q.082,2.736-1.429,3.4a1.8,1.8,0,0,1-1.793-.209,5.85,5.85,0,0,1-1.653-1.7q-.737-1.106-1.418-2.237-1.639-2.706-2.493-2.33a1.466,1.466,0,0,0-.683.881,4.383,4.383,0,0,0-.225,1.746l-.383.078Q666.433,629.137,667.944,628.47Zm4.143,1.92-.273,1.574-.531.28.346-2.061q.584-3.6,1.964-4.206.657-.289,1.11.737A4.9,4.9,0,0,0,672.087,630.391Z" transform="translate(-666.51 -625.914)" fill="#fff"/>
      </g>
      <g id="Group_7890" data-name="Group 7890" transform="translate(871.426 520.238)">
        <path id="Path_5592" data-name="Path 5592" d="M964.934,531.105l1.479-.605.518.3-1.93.8q-3.357,1.417-4.606.571-.6-.4.034-1.332A4.9,4.9,0,0,0,964.934,531.105Zm3.013-5.264a1.8,1.8,0,0,1,.776,1.629,5.864,5.864,0,0,1-.564,2.305q-.545,1.211-1.14,2.389-1.422,2.827-.649,3.35a1.465,1.465,0,0,0,1.109.112,4.384,4.384,0,0,0,1.6-.738l.27.283q-2.273,1.524-3.642.6a1.8,1.8,0,0,1-.775-1.629,5.844,5.844,0,0,1,.563-2.3q.546-1.212,1.14-2.39,1.423-2.827.649-3.35a1.462,1.462,0,0,0-1.109-.111,4.39,4.39,0,0,0-1.6.737l-.27-.283Q966.58,524.916,967.948,525.841Zm.576,4.531-1.479.605-.519-.3,1.93-.8q3.358-1.417,4.607-.571.594.4-.035,1.332A4.9,4.9,0,0,0,968.523,530.372Z" transform="translate(-960.107 -525.492)" fill="#fff"/>
      </g>
      <g id="Group_7892" data-name="Group 7892" transform="translate(606.486 574.471)">
        <path id="Path_5594" data-name="Path 5594" d="M621.846,610.922a1.151,1.151,0,0,1,1.515.13c.448.449.273,1.868-.846,1.711A1.076,1.076,0,0,1,621.846,610.922Zm-1.257-.72-8.528-7.837a.674.674,0,0,1,.075-.443,1.4,1.4,0,0,1,.277-.43,1.613,1.613,0,0,1,.466-.311.6.6,0,0,1,.444-.073l7.808,8.554A.993.993,0,0,1,620.59,610.2Z" transform="translate(-612.048 -601.089)" fill="#fff"/>
      </g>
      <g id="Group_7893" data-name="Group 7893" transform="translate(635.003 521.351)">
        <path id="Path_5595" data-name="Path 5595" d="M652.82,532.92c-1.252-4.07,3.337-3.843,3.983-6.431.5-2.009-1.687-2.377-2.68-1.959a10.032,10.032,0,0,1-.888,1.934.819.819,0,0,1-.594-.13,6.157,6.157,0,0,1,.359-2.4c3.02-.735,6.041.749,5.49,2.955-.8,3.2-5.143,1.743-4.937,6.193C653.44,533.279,652.986,533.062,652.82,532.92Zm-.682,1.4a1.02,1.02,0,0,1,1.5.429.943.943,0,0,1-.431,1.394,1.032,1.032,0,0,1-1.494-.437A.916.916,0,0,1,652.138,534.325Z" transform="translate(-651.557 -523.747)" fill="#fff"/>
      </g>
      <g id="Group_7894" data-name="Group 7894" transform="translate(837.72 599.596)">
        <path id="Path_5596" data-name="Path 5596" d="M925.879,639.485c-3.981,1.513-4.05-3.081-6.675-3.559-2.037-.371-2.263,1.837-1.782,2.8a10.009,10.009,0,0,1,1.987.762.817.817,0,0,1-.091.6,6.167,6.167,0,0,1-2.416-.2c-.928-2.966.358-6.076,2.6-5.669,3.247.591,2.071,5.02,6.5,4.527C926.2,638.844,926.011,639.31,925.879,639.485Zm1.446.591a1.021,1.021,0,0,1,.332-1.521.943.943,0,0,1,1.419.341,1.033,1.033,0,0,1-.34,1.519A.916.916,0,0,1,927.325,640.076Z" transform="translate(-916.598 -634.18)" fill="#fff"/>
      </g>
      <g id="Group_7895" data-name="Group 7895" transform="translate(758.657 578.698)">
        <path id="Path_5597" data-name="Path 5597" d="M834.449,628.326a3.7,3.7,0,1,0-4.827-2.034A3.707,3.707,0,0,0,834.449,628.326Z" transform="translate(-816.531 -610.156)" fill="#fff"/>
        <path id="Path_5598" data-name="Path 5598" d="M840.739,617.779c-.361-.247-.764-.5-1.2-.743l-.052-.03.018-.065c1.017-3.861.494-6.868-1.433-8.249-1.8-1.288-4.541-.968-7.748.988l-.046.029-.046-.046c-2.637-2.6-5.238-3.56-7.357-2.7-1.932.807-3.074,3.1-3.215,6.467-.01.232-.014.468-.014.705v.062l-.062.015a15.293,15.293,0,0,0-2.03.654,7.09,7.09,0,0,0-3.663,2.844,1.314,1.314,0,0,0-.6.09,1.33,1.33,0,0,0,.117,2.509c.26,1.661,1.534,3.332,3.7,4.812.361.247.765.5,1.2.743l.051.028-.017.066c-1.016,3.862-.494,6.868,1.433,8.249,1.39,1,3.34,1.027,5.64.091a14.864,14.864,0,0,0,2.108-1.08l.047-.029.046.046c2.637,2.6,5.237,3.56,7.324,2.711l.033-.014c1.932-.807,3.073-3.1,3.216-6.467.009-.232.013-.468.013-.705V628.7l.062-.014a15.246,15.246,0,0,0,2.03-.654c2.445-1,3.879-2.452,4.148-4.214C844.761,621.77,843.444,619.624,840.739,617.779Zm-20.424,15.689c-1.564-1.121-1.964-3.716-1.1-7.12a25.63,25.63,0,0,0,4.3,1.668l.234.069.124.212a25.059,25.059,0,0,0,3.053,4.217C824.1,634.211,821.765,634.507,820.315,633.467Zm7.377-1.5a23.617,23.617,0,0,1-2.668-3.556c.9.216,1.828.4,2.758.543,1.066.163,2.144.27,3.209.326a23.5,23.5,0,0,1-3.244,2.7l-.027.018Zm-8.186-6.515-.036-.018.011-.038a24.394,24.394,0,0,1,1.481-3.632c.281.874.6,1.752.96,2.612s.767,1.722,1.2,2.547A24.238,24.238,0,0,1,819.507,625.454Zm17.723,2.529a23.169,23.169,0,0,1-4.147.424q.589-.672,1.145-1.383a1.333,1.333,0,0,0,1.49-1.814,1.359,1.359,0,0,0-.072-.136c.339-.5.667-1.011.975-1.527a23.451,23.451,0,0,1,.652,4.381l0,.045Zm-12.981-.888a31.753,31.753,0,0,1-2.617-6.256l-.067-.223.117-.207a31.88,31.88,0,0,1,1.82-2.846,31.328,31.328,0,0,1,2.364-2.91l.14-.153.21.006a31.762,31.762,0,0,1,7.056,1.039l.224.058.112.2a31.8,31.8,0,0,1,2.617,6.256l.068.226-.116.206c-.38.67-.8,1.326-1.23,1.972a1.325,1.325,0,0,0-1.506,2.078c-.463.585-.946,1.156-1.449,1.7l-.143.154-.207-.007a31.772,31.772,0,0,1-7.056-1.039l-.224-.059Zm12.646-5.953c-.282-.875-.6-1.755-.961-2.616s-.765-1.72-1.2-2.548a24.4,24.4,0,0,1,3.608,1.469l.046.024-.011.038A24.225,24.225,0,0,1,836.895,621.141Zm-6.731-10.208a23.576,23.576,0,0,1,2.668,3.556c-.9-.216-1.828-.4-2.758-.543-1.058-.162-2.127-.267-3.21-.325a23.627,23.627,0,0,1,3.271-2.72Zm8.688,4.737c-.058.292-.128.588-.2.888a25.689,25.689,0,0,0-4.3-1.671l-.232-.067-.125-.213a25.107,25.107,0,0,0-3.054-4.218c2.821-1.7,5.159-1.993,6.609-.954C838.975,610.464,839.441,612.678,838.852,615.67Zm-18.269-.729v-.013l.044-.009a23.175,23.175,0,0,1,4.147-.424c-.708.806-1.387,1.655-2.016,2.533-.54.752-1.048,1.534-1.522,2.326A23.551,23.551,0,0,1,820.583,614.941Zm16.758,7.7-.064-.238.118-.219a25.831,25.831,0,0,0,1.825-4.265c3.038,1.76,4.613,3.857,4.323,5.758-.275,1.8-2.1,2.9-3.588,3.5a14.176,14.176,0,0,1-1.774.58A25.062,25.062,0,0,0,837.341,622.645Zm-11.579-9.229-.154.16h-.222a24.72,24.72,0,0,0-4.821.425c0-.178.005-.356.013-.531.125-2.988,1.068-5,2.678-5.67,1.663-.677,3.93.21,6.224,2.431A24.609,24.609,0,0,0,825.762,613.416Zm-5.246,6.841.065.236-.118.222a25.8,25.8,0,0,0-1.826,4.266c-2.492-1.444-4-3.115-4.3-4.718a1.336,1.336,0,0,0,.7-1.726,1.322,1.322,0,0,0-.307-.453,6.537,6.537,0,0,1,3.168-2.367,14.3,14.3,0,0,1,1.774-.58A25.117,25.117,0,0,0,820.516,620.257ZM834.6,635.1c-1.663.677-3.931-.21-6.224-2.431a24.651,24.651,0,0,0,3.717-3.185l.154-.16h.222a24.786,24.786,0,0,0,4.821-.424c0,.178-.005.355-.012.53C837.153,632.421,836.211,634.431,834.6,635.1Zm-4.224-25.192-.011-.008,0,0,.007.011Z" transform="translate(-812.467 -606.656)" fill="#fff"/>
      </g>
      <path id="Path_5599" data-name="Path 5599" d="M895.1,626.822a1.917,1.917,0,0,0-2.059-1.738l-9.839.83a1.909,1.909,0,0,0-1.739,2.06l.351,4.155a14.722,14.722,0,0,1-5.5.435l-.323-3.831a1.919,1.919,0,0,0-2.059-1.74l-9.838.831a1.905,1.905,0,0,0-1.74,2.059l.626,7.41a1.914,1.914,0,0,0,2.059,1.74l9.838-.831a1.9,1.9,0,0,0,1.74-2.059l-.216-2.563a15.216,15.216,0,0,0,5.5-.437l.189,2.241a1.914,1.914,0,0,0,2.059,1.739l9.839-.831a1.909,1.909,0,0,0,1.739-2.059ZM874.79,637.2l-9.838.831a.9.9,0,0,1-.974-.822l-.625-7.409a.9.9,0,0,1,.822-.973c.049,0,9.863-.834,9.912-.834a.906.906,0,0,1,.9.825l.625,7.41A.9.9,0,0,1,874.79,637.2ZM893.9,635.29l-9.839.831a.9.9,0,0,1-.973-.821l-.626-7.41a.9.9,0,0,1,.823-.974c.049,0,9.863-.834,9.913-.834a.906.906,0,0,1,.9.825l.625,7.41A.9.9,0,0,1,893.9,635.29Z" transform="translate(-65.817 -32.393)" fill="#fff"/>
      <g id="Group_7896" data-name="Group 7896" transform="translate(684.171 552.649)">
        <path id="Path_5600" data-name="Path 5600" d="M744.686,572.348l-.253.03a21.852,21.852,0,0,0-14.986,8.616,21.941,21.941,0,0,0-14.932,8.71l-.151.205,11.513,19.879,14.842-8.6.638-.37,6.784-3.929,3.14,5.461.753-2.99,3.044.727-3.129-5.4,4.25-2.462Zm-.416.831,10.749,18.56a18.511,18.511,0,0,0-14.136,8.186l-10.749-18.56A21.077,21.077,0,0,1,744.27,573.179Zm-22.731,11.273a21.2,21.2,0,0,1,7.888-2.677l10.749,18.56a18.508,18.508,0,0,0-14.135,8.187l-10.749-18.56A21.19,21.19,0,0,1,721.539,584.452Zm17.58,16.768-11.784,6.825A17.73,17.73,0,0,1,739.119,601.221Zm3.058-1.771a17.729,17.729,0,0,1,4.9-4.405l.677,1.176Zm9.29-1.018L751,600.3l-3.247-5.646a17.7,17.7,0,0,1,2.6-1.173l3.146,5.432Zm-.358-5.192a17.777,17.777,0,0,1,2.852-.615l-2.4,1.392Z" transform="translate(-714.364 -572.348)" fill="#fff"/>
        <path id="Path_5601" data-name="Path 5601" d="M750.552,579.136l-.127-.767a18.185,18.185,0,0,0-11.117,6.439l.6.491A17.4,17.4,0,0,1,750.552,579.136Z" transform="translate(-720.369 -573.798)" fill="#fff"/>
        <path id="Path_5602" data-name="Path 5602" d="M752.442,582.4l-.126-.766a18.176,18.176,0,0,0-11.117,6.438l.6.491A17.406,17.406,0,0,1,752.442,582.4Z" transform="translate(-720.824 -574.583)" fill="#fff"/>
        <path id="Path_5603" data-name="Path 5603" d="M754.4,585.775l-.127-.767a18.185,18.185,0,0,0-11.117,6.439l.6.491A17.4,17.4,0,0,1,754.4,585.775Z" transform="translate(-721.295 -575.396)" fill="#fff"/>
        <path id="Path_5604" data-name="Path 5604" d="M731,590.457l-.127-.767a18.188,18.188,0,0,0-11.117,6.439l.6.491A17.4,17.4,0,0,1,731,590.457Z" transform="translate(-715.663 -576.523)" fill="#fff"/>
        <path id="Path_5605" data-name="Path 5605" d="M732.894,593.721l-.127-.766a18.183,18.183,0,0,0-11.117,6.438l.6.491A17.4,17.4,0,0,1,732.894,593.721Z" transform="translate(-716.118 -577.309)" fill="#fff"/>
        <path id="Path_5606" data-name="Path 5606" d="M734.849,597.1l-.127-.767a18.186,18.186,0,0,0-11.117,6.439l.6.491A17.406,17.406,0,0,1,734.849,597.1Z" transform="translate(-716.589 -578.121)" fill="#fff"/>
      </g>
      <g id="Group_7897" data-name="Group 7897" transform="translate(588.941 564.035)">
        <path id="Path_5607" data-name="Path 5607" d="M595.62,602.315l-.386,15.053,15.053.387Zm.728,1.894,12.084,12.721-12.4-.318Z" transform="translate(-590.456 -590.949)" fill="#fff"/>
        <path id="Path_5608" data-name="Path 5608" d="M589.736,587.345l-.795,30.958,30.959.795Zm.728,1.894,27.581,29.034-1.845-.048.036-1.391-.388-.01-.036,1.391-1.279-.033.036-1.391-.389-.01-.036,1.391-1.279-.033.036-1.391-.389-.01-.036,1.391L611.2,618.1l.036-1.391-.388-.01-.036,1.391-1.279-.033.036-1.391-.388-.01-.036,1.391-1.279-.033.036-1.391-.389-.011L607.476,618l-1.279-.033.036-1.391-.389-.01-.036,1.391-1.279-.033.036-1.391-.388-.01-.036,1.391-1.279-.033.036-1.391-.388-.01-.036,1.391-1.279-.033.036-1.391-.389-.01-.036,1.391-1.279-.033.036-1.391-.389-.01-.036,1.391-1.279-.033.036-1.391-.388-.01-.036,1.391-1.279-.033.036-1.391-.388-.01-.036,1.391-1.279-.033.036-1.391-.388-.01-.036,1.391-1.279-.033.036-1.391-.388-.01-.036,1.391-1.279-.033.036-1.391-.388-.01-.036,1.391-1.068-.027Z" transform="translate(-588.941 -587.345)" fill="#fff"/>
      </g>
      <path id="Path_5609" data-name="Path 5609" d="M735.356,538.661a13.681,13.681,0,1,0,6.825,18.082A13.669,13.669,0,0,0,735.356,538.661Zm6.215,17.453-3.652-1.661a14.761,14.761,0,0,0,1.036-7.4,14.74,14.74,0,0,0,2.788-.5A12.754,12.754,0,0,1,741.57,556.115Zm-17.46,6.3a14.877,14.877,0,0,1-2.791-6.808,13.559,13.559,0,0,1,5.365,1.148Zm2.91-6.4a14.364,14.364,0,0,0-5.783-1.22,14.1,14.1,0,0,1,1.051-6.564l6.854,3.117Zm-4.4-8.52a14.146,14.146,0,0,1,4.424-5.229,14.361,14.361,0,0,0,4.648,3.474l-2.216,4.873Zm5.095-5.692a14.95,14.95,0,0,1,6.824-2.323L732.028,545A13.562,13.562,0,0,1,727.715,541.806Zm7.559-1.989a15.3,15.3,0,0,1,2.758,6.474,13.593,13.593,0,0,1-5.265-.962Zm1.244.388a12.868,12.868,0,0,1,4.906,5.6,13.949,13.949,0,0,1-2.581.447A16.074,16.074,0,0,0,736.519,540.2Zm-9.353.952a13.863,13.863,0,0,1-1.471-2.275,12.841,12.841,0,0,1,7.731-.083A15.6,15.6,0,0,0,727.166,541.156Zm-.663.466a14.935,14.935,0,0,0-4.619,5.539l-3.744-1.7a12.756,12.756,0,0,1,6.791-6.3A14.637,14.637,0,0,0,726.5,541.623Zm-4.951,6.277a14.918,14.918,0,0,0-1.125,6.918,14.748,14.748,0,0,0-2.893.453,12.9,12.9,0,0,1,.276-9.073Zm-1.044,7.724a15.591,15.591,0,0,0,2.354,6.4,12.8,12.8,0,0,1-5.044-5.992A13.835,13.835,0,0,1,720.508,555.623Zm4.338,7.126,2.568-5.648a13.571,13.571,0,0,1,4.24,3.4A15.3,15.3,0,0,1,724.846,562.749Zm7.308-1.605a13.977,13.977,0,0,1,1.352,2.257,12.822,12.822,0,0,1-7.547.031A16.076,16.076,0,0,0,732.154,561.144Zm-4.4-4.782,2.127-4.677,6.968,3.169a13.936,13.936,0,0,1-4.514,5.2A14.382,14.382,0,0,0,727.75,556.362Zm2.462-5.413,2.221-4.884a14.372,14.372,0,0,0,5.715,1.028,13.962,13.962,0,0,1-.965,7.026Zm4.063,12.187a14.749,14.749,0,0,0-1.449-2.443,14.739,14.739,0,0,0,4.755-5.5l3.651,1.66A12.9,12.9,0,0,1,734.275,563.136Z" transform="translate(-30.595 -11.294)" fill="#fff"/>
      <path id="Path_5610" data-name="Path 5610" d="M978.038,546.234a1.324,1.324,0,0,0-1.208-1.413h-1.538a1.324,1.324,0,0,0-1.208,1.413v31.72l1.976,4.2,1.977-4.2Zm-.459,31.335h-1.221V549.156h1.221Zm-3.08-31.246a.915.915,0,0,1,.834-.977h1.459a.915.915,0,0,1,.834.977v1.709H974.5Zm.033,2.833h1.23v28.413h-1.23Zm2.15,30.813H975.44l-.916-2.015H977.6Z" transform="translate(-92.716 -13.073)" fill="#fff"/>
      <path id="Path_5611" data-name="Path 5611" d="M920.066,617.126a2.03,2.03,0,0,0,.957,2.7l2.33,1.11a2.03,2.03,0,0,0,2.7-.958l11.3-23.713-.4-6.868-5.588,4.013Zm11.564-22.976,1.248.595-9.261,19.429-1.248-.6Zm-6.016,20.975-1.5-.714,9.261-19.428,1.5.714Zm-.058,4.619a1.476,1.476,0,0,1-1.966.7l-2.329-1.111a1.476,1.476,0,0,1-.7-1.966l1.111-2.329,4.992,2.38Zm1.8-3.786-1.248-.594,9.261-19.429,1.248.6Zm7.306-24.176,1.881.9.145,3.273-4.66-2.222Z" transform="translate(-79.665 -23.804)" fill="#fff"/>
      <path id="Path_5612" data-name="Path 5612" d="M621.276,641.46a2.03,2.03,0,0,0,2.01-2.046l-.023-2.581a2.031,2.031,0,0,0-2.046-2.01l-26.268.232-6,3.371,6.055,3.266Zm-25.72-.326-.012-1.383,21.522-.19.012,1.383Zm21.49-3.785.014,1.659-21.521.19-.014-1.659Zm4.177-1.973a1.477,1.477,0,0,1,1.487,1.461l.023,2.582a1.477,1.477,0,0,1-1.462,1.487l-2.581.023-.049-5.531Zm-4.193.037.012,1.383-21.522.19-.012-1.383ZM592.1,639.441l-.018-2.083,2.878-1.565.046,5.162Z" transform="translate(-0.003 -34.739)" fill="#fff"/>
      <g id="Group_7901" data-name="Group 7901" transform="translate(661.043 526.031)">
        <path id="Path_5613" data-name="Path 5613" d="M683.9,542.432l1.014,2.522,1.171-.471,11.537,28.706a5.631,5.631,0,1,0,10.449-4.2l-11.536-28.706,1.171-.471-1.014-2.522Zm20.756,33.162a4.859,4.859,0,0,1-6.314-2.694l-7.458-18.557,9.009-3.621,7.458,18.557A4.859,4.859,0,0,1,704.66,575.594ZM696.7,539.382l-1.171.471L699.606,550l-9.008,3.621-4.079-10.149-1.172.47-.434-1.08,11.35-4.562Z" transform="translate(-683.904 -537.291)" fill="#fff"/>
        <g id="Group_7898" data-name="Group 7898" transform="translate(10.086 18.562)">
          <path id="Path_5614" data-name="Path 5614" d="M699.783,565.382a1.89,1.89,0,1,1,1.049-2.458A1.892,1.892,0,0,1,699.783,565.382Zm-1.126-2.8a1.129,1.129,0,1,0,1.469.626A1.131,1.131,0,0,0,698.657,562.581Z" transform="translate(-697.188 -561.739)" fill="#fff"/>
        </g>
        <g id="Group_7899" data-name="Group 7899" transform="translate(15.726 24.132)">
          <path id="Path_5615" data-name="Path 5615" d="M706.942,572.341a1.694,1.694,0,1,1,.94-2.2A1.7,1.7,0,0,1,706.942,572.341Zm-.98-2.438a.934.934,0,1,0,1.214.518A.935.935,0,0,0,705.962,569.9Z" transform="translate(-704.616 -569.075)" fill="#fff"/>
        </g>
        <g id="Group_7900" data-name="Group 7900" transform="translate(15.57 30.724)">
          <path id="Path_5616" data-name="Path 5616" d="M707.159,581.615a2,2,0,1,1,1.111-2.6A2,2,0,0,1,707.159,581.615Zm-1.21-3.009a1.241,1.241,0,1,0,1.615.689A1.243,1.243,0,0,0,705.949,578.606Z" transform="translate(-704.411 -577.756)" fill="#fff"/>
        </g>
      </g>
      <g id="Group_7902" data-name="Group 7902" transform="translate(794.773 569.83)">
        <path id="Path_5617" data-name="Path 5617" d="M883.89,605.885a11.145,11.145,0,0,0-22.284,0h-1.572v5.351h25.307v-5.351Zm.727,4.627h-.6v-.925a.362.362,0,0,0-.724,0v.925h-.746v-.925a.362.362,0,0,0-.724,0v.925h-.746v-.925a.362.362,0,0,0-.724,0v.925H879.6v-.925a.362.362,0,0,0-.724,0v.925h-.746v-.925a.362.362,0,1,0-.724,0v.925h-.746v-.925a.362.362,0,0,0-.724,0v.925h-.746v-.925a.362.362,0,0,0-.724,0v.925h-.746v-.925a.362.362,0,0,0-.724,0v.925h-.746v-.925a.362.362,0,0,0-.724,0v.925h-.746v-.925a.362.362,0,0,0-.724,0v.925h-.746v-.925a.362.362,0,0,0-.724,0v.925h-.746v-.925a.362.362,0,0,0-.724,0v.925h-.746v-.925a.362.362,0,0,0-.724,0v.925H864.9v-.925a.362.362,0,0,0-.724,0v.925h-.746v-.925a.362.362,0,0,0-.724,0v.925h-.746v-.925a.362.362,0,1,0-.724,0v.925h-.483v-3.9h1.585v-1.016a10.423,10.423,0,0,1,20.823,1v.02h1.451Z" transform="translate(-860.034 -594.977)" fill="#fff"/>
        <path id="Path_5618" data-name="Path 5618" d="M874.485,600.305a7.239,7.239,0,0,0-7.209,7.59l.007,0h14.443c0-.01,0-.459,0-.468A7.281,7.281,0,0,0,874.485,600.305Zm0,.724a6.553,6.553,0,0,1,6.5,6.139l-13.009,0A6.553,6.553,0,0,1,874.485,601.029Z" transform="translate(-861.771 -596.26)" fill="#fff"/>
      </g>
      <path id="Path_5619" data-name="Path 5619" d="M647.231,610.148a6.463,6.463,0,0,0-5.6,1.741,16.893,16.893,0,0,1-1.443,1.153,7.507,7.507,0,0,1-.443-4.743.671.671,0,0,0-1.3-.332,9.684,9.684,0,0,0-.156,3.383c-2.707-2.038-5.534-1.626-8.495-.181l.23.413c1.627,2.918,4.389,3.6,7.228,2.932a11.432,11.432,0,0,0-1.339.771c-2.236,1.51-5.37,4.958-1.236,11.079,3.3,4.88,10.272,5.148,14.719,2.337q.132-.083.26-.17a10.408,10.408,0,0,0,2.85-14.127C650.977,611.99,649.2,610.558,647.231,610.148Zm-16.172,1.414a6.269,6.269,0,0,1,7.746,1.715C635.974,614.36,632.7,614.121,631.059,611.562Zm17.864,16.384c-4.092,2.588-10.493,2.369-13.5-2.082-3.514-5.2-1.4-8.221.995-9.837a11.285,11.285,0,0,1,2.3-1.176,8.756,8.756,0,0,0,1.82-.958h0a16.926,16.926,0,0,0,1.684-1.33,5.588,5.588,0,0,1,4.823-1.538c1.7.354,3.328,1.689,4.707,3.86A9.491,9.491,0,0,1,648.923,627.946Z" transform="translate(-9.836 -28.153)" fill="#fff"/>
      <g id="Group_7903" data-name="Group 7903" transform="translate(732.41 582.932)">
        <path id="Path_5620" data-name="Path 5620" d="M780.337,615.091a9.036,9.036,0,0,0,5.822,15.185,6.132,6.132,0,0,1,3.9,1.892l1.692,1.765a2.208,2.208,0,0,0,3.117.067l4.442-4.256a2.207,2.207,0,0,0,.067-3.118l-1.689-1.763a5.99,5.99,0,0,1-1.723-3.912,9.037,9.037,0,0,0-15.627-5.861Zm15.4,17.175a22.36,22.36,0,0,0-10.744-8.226,1.085,1.085,0,0,1-.025-.853c.022-.02.109-.008.226.053a1.673,1.673,0,0,0,1.8-.137c.016-.016.032-.032.046-.049a.845.845,0,0,0,.009-1.079.962.962,0,0,1-.184-.715.162.162,0,0,1,.048-.1c.011,0,.077,0,.194.09a1.208,1.208,0,0,0,1.565.03.763.763,0,0,0-.093-1.073.693.693,0,0,1-.029-.853c.027-.031.047-.046.134.033a1.276,1.276,0,0,0,1.244.362,22.355,22.355,0,0,0,7.65,10.75Zm-.424-11.291a6.637,6.637,0,0,0,1.9,4.339l1.689,1.763a1.555,1.555,0,0,1-.047,2.2l-.793.76a21.689,21.689,0,0,1-7.71-11.149c0-.009-.005-.019-.008-.029-.071-.243-.14-.486-.2-.732a.336.336,0,0,0-.651.165c.055.216.118.43.179.643,0,.008,0,.018,0,.026a.294.294,0,0,1,.031.159c-.04.036-.289.036-.573-.222a.737.737,0,0,0-1.059-.014,1.357,1.357,0,0,0,0,1.778.346.346,0,0,1,.1.168.189.189,0,0,1-.113.052.728.728,0,0,1-.557-.159.784.784,0,0,0-1.061-.04l0,0a1.343,1.343,0,0,0,.046,1.664c.12.179.068.238.049.26a1.019,1.019,0,0,1-1.037.036.814.814,0,0,0-.979.043,1.217,1.217,0,0,0-.279,1.1c-.121-.039-.241-.081-.363-.118a.336.336,0,0,0-.194.642,21.684,21.684,0,0,1,11.561,8.423l-.831.8a1.556,1.556,0,0,1-2.2-.048l-1.692-1.764a6.782,6.782,0,0,0-4.315-2.09,8.385,8.385,0,0,1-5.4-14.091c.1-.111.21-.218.318-.321a8.386,8.386,0,0,1,14.185,5.759Z" transform="translate(-777.898 -612.233)" fill="#fff"/>
        <path id="Path_5621" data-name="Path 5621" d="M806.967,637.574l-4.546,4.355a.24.24,0,0,0,.043.409,2.932,2.932,0,0,0,2.931-.755l1.1-1.053a2.931,2.931,0,0,0,.879-2.9A.239.239,0,0,0,806.967,637.574Z" transform="translate(-783.779 -618.313)" fill="#fff"/>
        <path id="Path_5622" data-name="Path 5622" d="M805.18,635.485l-4.774,4.575a.371.371,0,0,0-.03.522l.517.539a.37.37,0,0,0,.523-.007l4.774-4.575a.37.37,0,0,0,.03-.522l-.517-.54A.37.37,0,0,0,805.18,635.485Z" transform="translate(-783.286 -617.804)" fill="#fff"/>
      </g>
      <g id="Group_7904" data-name="Group 7904" transform="translate(637.507 545.734)">
        <path id="Path_5623" data-name="Path 5623" d="M653.983,564.648a4.236,4.236,0,0,1,5.976-.329l15.326,13.726a3.7,3.7,0,0,1-4.934,5.509l-11.343-10.16a3.123,3.123,0,0,1,4.168-4.654l8.216,7.359-.548.612-8.216-7.359a2.3,2.3,0,0,0-3.072,3.43L670.9,582.943a2.876,2.876,0,1,0,3.838-4.285L659.412,564.93a3.411,3.411,0,0,0-4.552,5.083l12.17,10.9-.548.611-12.169-10.9A4.237,4.237,0,0,1,653.983,564.648Z" transform="translate(-652.905 -563.241)" fill="#fff"/>
      </g>
      <path id="Path_5624" data-name="Path 5624" d="M977.106,624.871v.015L971.9,628.14l0,0h-.026v6.992a2.107,2.107,0,0,0-.633-.1c-.844,0-1.528.467-1.528,1.043s.684,1.044,1.528,1.044a1.423,1.423,0,0,0,1.512-.932h.017v-6.672l3.42-2.1V632.9a2.118,2.118,0,0,0-.634-.1c-.844,0-1.528.467-1.528,1.044s.684,1.043,1.528,1.043,1.544-.462,1.551-1.034h0v-8.008h0v-.965h0Z" transform="translate(-91.664 -32.343)" fill="#fff"/>
      <path id="Path_5625" data-name="Path 5625" d="M692.213,579.242l-.064-.118a6.817,6.817,0,0,0-1.127-5.376,7.934,7.934,0,0,0-5.142-3.193l-.594-.055.337.493c.092.134.209.286.338.452a4.541,4.541,0,0,1,1.234,4,3.854,3.854,0,0,0,.589,2.946,4.876,4.876,0,0,0,2.326,1.977c.638,1.378,1.436,3.151,2.34,5.16,6.06,13.466,12.194,26.689,14.77,27.6a.819.819,0,0,0,.664-.019.806.806,0,0,0,.4-.509c.768-2.471-5.477-14.114-13.1-27.936C694.112,582.71,693.1,580.87,692.213,579.242Zm-3.882-6.555a7.352,7.352,0,0,1,1.752,3.872,11.211,11.211,0,0,0,.964,2.954A4.07,4.07,0,0,1,689,575.727,7.211,7.211,0,0,0,688.331,572.687Zm2.375,7.635,1.144-.574c.854,1.569,1.823,3.327,2.852,5.193.915,1.661,1.909,3.463,2.925,5.325a4,4,0,0,1-1.971.989c-.966-2.116-1.88-4.147-2.694-5.954C692.1,583.379,691.329,581.672,690.706,580.322Zm.846-1.053a10.77,10.77,0,0,1-.92-2.827,7.885,7.885,0,0,0-1.907-4.155,7.522,7.522,0,0,1,1.842,1.786A6.314,6.314,0,0,1,691.552,579.269Zm-3.292-1.174a3.3,3.3,0,0,1-.517-2.515,4.819,4.819,0,0,0-1.105-4.176c.946.512,1.848,2.583,1.806,4.311a4.6,4.6,0,0,0,2.028,4.1l-.1.051A4.252,4.252,0,0,1,688.26,578.095Zm19.494,34.346c-.042.135-.1.165-.12.175a.265.265,0,0,1-.225-.008c-2.059-.732-7.25-11.5-11.517-20.834a4.255,4.255,0,0,0,2.008-1.007C702.917,599.971,708.375,610.439,707.754,612.44Z" transform="translate(-23.194 -19.254)" fill="#fff"/>
      <path id="Path_5626" data-name="Path 5626" d="M687.2,628.451c.784-5.179.175-3.177,4.472-12.83a1.055,1.055,0,0,0-.152-1.066c-11.041-11.255-10.229-10.58-11.2-11.009-.926-.412.314-.24-16.174-1.235a.809.809,0,0,0-.51,1.422c4.093,3.521,3.292,2.822,4.162,3.616a1.6,1.6,0,0,1,.215,1.5l-1.465,3.291c2.329,3.361,11.776,7.817,16.006,7.114l1.418-3.185a1.707,1.707,0,0,1,1.647-.928l4.212.555a.267.267,0,0,1,.212.376c-3.83,8.6-2.813,6.9-6.052,10.956a.828.828,0,0,0,.365,1.326c1.61.717,1.988,1,2.5.673A.729.729,0,0,0,687.2,628.451Zm-8.188-24.35a3.662,3.662,0,0,1,1.777.788c.033.033,9.708,9.824,9.723,9.869-15.52-1.693-14.839-1.431-15.708-2.224l-10.2-9.321Zm2.929,14.342c-3.6.349-12.161-3.65-14.363-6.407,1.38-3.1,1.4-3.037,1.432-3.584,5.457,4.985,5.7,5.483,7.19,5.645l7.552.823C683.234,615.386,683.269,615.469,681.944,618.442Z" transform="translate(-17.916 -26.912)" fill="#fff"/>
      <g id="Group_7905" data-name="Group 7905" transform="translate(831.195 519.532)">
        <path id="Path_5627" data-name="Path 5627" d="M923.17,531.947a8.827,8.827,0,0,0-1.155-8.183l.631-.368a10.182,10.182,0,0,1,1.47,3.057l.108.375.323-.219a4.508,4.508,0,0,0,1.879-4.3,4.439,4.439,0,0,0-.559-1.645.293.293,0,0,0,.026-.016l.283-.237a.425.425,0,1,0-.544-.653l-.259.216a4.418,4.418,0,0,0-1.831-1.254l-.052-.019a4.423,4.423,0,0,0-4.53,1.11l-.286.278.356.179a9.773,9.773,0,0,1,2.9,2.233l-.652.381a8.8,8.8,0,0,0-7.636-2.68l-.23-.782a9.771,9.771,0,0,1,3.664.141l.388.091-.042-.4a4.422,4.422,0,0,0-2.769-3.752l-.053-.019a4.429,4.429,0,0,0-2.165-.216l-.056-.306a.425.425,0,1,0-.836.153l.066.36a4.428,4.428,0,0,0-1.521.921,4.508,4.508,0,0,0-1.31,4.509l.108.375.323-.219a10.184,10.184,0,0,1,3.089-1.41l.231.782a8.815,8.815,0,0,0-5.175,13.145l-2.1,2.62a.188.188,0,0,0,.253.273l2.636-1.8a8.8,8.8,0,0,0,8.158,2.983l.861,3.038a.188.188,0,0,0,.369-.048l.064-3.308A8.818,8.818,0,0,0,923.17,531.947Zm.133-12.714.046.016a3.849,3.849,0,0,1,2.515,3.13,3.967,3.967,0,0,1-1.325,3.525,10.584,10.584,0,0,0-4.888-5.952A3.807,3.807,0,0,1,923.3,519.234Zm-14.064,1.134a3.964,3.964,0,0,1,1.237-3.556,3.848,3.848,0,0,1,3.936-.8l.046.017a3.808,3.808,0,0,1,2.346,2.89A10.583,10.583,0,0,0,909.239,520.367Zm2.816,16.345a8.263,8.263,0,1,1,10.582-4.958A8.274,8.274,0,0,1,912.055,536.713Z" transform="translate(-905.22 -514.611)" fill="#fff"/>
        <path id="Path_5628" data-name="Path 5628" d="M919.834,529.532a7.366,7.366,0,1,0,4.42,9.433A7.374,7.374,0,0,0,919.834,529.532Zm-4.724,13.054a6.516,6.516,0,1,1,8.345-3.91A6.524,6.524,0,0,1,915.11,542.586Z" transform="translate(-907.681 -522.128)" fill="#fff"/>
        <path id="Path_5629" data-name="Path 5629" d="M928.519,537.82l-3.66.353,1.743-4.688a.283.283,0,0,0-.167-.365h0a.283.283,0,0,0-.362.167l-2.058,5.537,4.561-.439a.283.283,0,0,0-.054-.564Z" transform="translate(-914.974 -524.209)" fill="#fff"/>
      </g>
      <g id="Group_7906" data-name="Group 7906" transform="translate(704.927 584.501)">
        <path id="Path_5630" data-name="Path 5630" d="M765.706,626.314a12,12,0,1,0-12,12A12.043,12.043,0,0,0,765.706,626.314Zm-12,11.232a11.232,11.232,0,1,1,11.232-11.232A11.244,11.244,0,0,1,753.7,637.546Z" transform="translate(-741.702 -614.3)" fill="#fff"/>
        <path id="Path_5631" data-name="Path 5631" d="M754.334,616.937a10.012,10.012,0,1,0,10.013,10.012A10.023,10.023,0,0,0,754.334,616.937Zm0,18.869a8.857,8.857,0,1,1,8.857-8.857A8.866,8.866,0,0,1,754.334,635.806Z" transform="translate(-742.333 -614.935)" fill="#fff"/>
        <path id="Path_5632" data-name="Path 5632" d="M761.952,624.938l-4.515,2.143.059-6.8a.385.385,0,0,0-.382-.389h0a.385.385,0,0,0-.385.382l-.069,8.028,5.625-2.67a.385.385,0,0,0-.33-.7Z" transform="translate(-745.302 -615.647)" fill="#fff"/>
      </g>
      <path id="Path_5633" data-name="Path 5633" d="M632.616,573.571a14.609,14.609,0,0,0-27.519-5.132c-4.8.087-8.312.968-8.681,2.943-.374,2,2.68,4.123,7.234,5.953a14.607,14.607,0,0,0,27.11,5.056c4.908-.065,8.52-.941,8.893-2.945C640.021,577.471,637.061,575.383,632.616,573.571Zm-.872,2.824c-.039.412-.093.825-.171,1.241a13.688,13.688,0,0,1-.469,1.808,75.885,75.885,0,0,1-26.713-4.982,13.773,13.773,0,0,1,.214-1.856c.077-.415.175-.821.288-1.219q.131-.462.291-.91l.008-.021c2.713,2.033,8.174,3.825,13.6,4.837,5.178.966,10.32,1.219,13,.289C631.783,575.853,631.769,576.123,631.743,576.395ZM620.6,561.636a13.721,13.721,0,0,1,10.678,9.78c-3.062,1.522-19.206-.566-24.275-4.353A13.721,13.721,0,0,1,620.6,561.636Zm-14.487,6.8c.121-.216.254-.422.386-.629,2.181,1.6,6.373,3.062,11.57,4.032q.781.146,1.591.276c4.531.73,9.737,1.03,11.838.182.063.3.121.6.165.9.048.334.086.67.109,1.01.009.138.013.277.017.415-4.882,2.079-21.36-1.112-26.253-5.034.037-.084.072-.17.111-.254C605.795,569.027,605.952,568.727,606.117,568.432Zm9.457,20.172a13.736,13.736,0,0,1-10.95-10.891,80.281,80.281,0,0,0,25.091,4.679A13.735,13.735,0,0,1,615.574,588.6Zm15.669-7.128c-.328.009-.663.015-1.008.018a78.313,78.313,0,0,1-25.773-4.807c-.322-.126-.632-.253-.934-.38-4.147-1.74-6.463-3.528-6.233-4.761s2.969-2.048,7.371-2.19q-.247.575-.446,1.178c-2.137.171-3.608.652-3.785,1.6-.179.96,1.061,1.956,3.046,2.9q.426.2.894.4a77.916,77.916,0,0,0,26.393,4.922q.509-.016.979-.052c2.191-.163,3.707-.645,3.886-1.605s-1.023-1.926-2.954-2.855q.032-.633.008-1.26c4.055,1.721,6.313,3.481,6.086,4.7C638.543,580.516,635.738,581.349,631.243,581.477Zm-27.725-7.422c-1.535-.761-2.272-1.4-2.2-1.759s.963-.684,2.635-.842c-.084.325-.162.653-.224.989A14.764,14.764,0,0,0,603.518,574.055ZM632.6,576.8c1.5.75,2.221,1.377,2.154,1.736s-.983.69-2.69.847a14.9,14.9,0,0,0,.389-1.579C632.515,577.465,632.561,577.13,632.6,576.8Z" transform="translate(-1.792 -16.849)" fill="#fff"/>
      <path id="Path_5635" data-name="Path 5635" d="M738.246,514.529a4.985,4.985,0,1,0,4.985,4.985A4.99,4.99,0,0,0,738.246,514.529Zm0,8.723a3.739,3.739,0,1,1,3.739-3.739A3.742,3.742,0,0,1,738.246,523.252Z" transform="translate(-19.923 5.004)" fill="#fff"/>
      <path id="Path_5637" data-name="Path 5637" d="M863.563,536.068a4.985,4.985,0,1,0,4.985,4.985A4.99,4.99,0,0,0,863.563,536.068Zm0,8.723a3.739,3.739,0,1,1,3.739-3.739A3.742,3.742,0,0,1,863.563,544.791Z" transform="translate(-64.91 -10.966)" fill="#fff"/>
      <path id="Path_5642" data-name="Path 5642" d="M813.488,600.826l.848-2.735h-1.2l.19-1.1H814.7l.6-1.9h-1.257l.19-1.1h1.4l.849-2.676h1.082L816.72,594h1.3l.849-2.676h1.081L819.118,594H820.3l-.175,1.1h-1.36l-.585,1.9h1.243l-.19,1.1h-1.419l-.834,2.735h-1.112l.863-2.735h-1.3l-.848,2.735Zm3.6-3.831.585-1.9h-1.287l-.585,1.9Z" transform="translate(-53.971 -24.267)" fill="#fff"/>
      <path id="Path_5644" data-name="Path 5644" d="M703.8,637.156a5.572,5.572,0,0,1-1.51-2.193,4.4,4.4,0,0,1,2.523-5.951,5.374,5.374,0,0,1,7.231,2.863,4.125,4.125,0,0,1-2.244,5.63c-2,.828-3.679.21-4.244-1.155a1.115,1.115,0,0,1,.654-1.554l-.017-.041a2.205,2.205,0,0,1-1.863-1.366,1.672,1.672,0,0,1,1.115-2.2,3.4,3.4,0,0,1,4.5,1.875,3.98,3.98,0,0,1,.321,1.656l-2.646.6c-.973.213-1.347.494-1.174.913.236.647,1.368,1.049,2.922.405a3.289,3.289,0,0,0,1.9-4.6,4.361,4.361,0,0,0-5.971-2.15,3.579,3.579,0,0,0-2.152,4.974,4.618,4.618,0,0,0,1.271,1.769Zm5.294-3.347a1.776,1.776,0,0,0-.137-.56,2.205,2.205,0,0,0-2.914-.963c-.554.229-.821.657-.614,1.156.263.635,1.326.908,2.179.713Z" transform="translate(-27.195 -33.228)" fill="#fff"/>
      <path id="Path_5645" data-name="Path 5645" d="M853.735,559.9a2.7,2.7,0,0,0-2.644-2l-3.608-8.4a2.541,2.541,0,0,0,.133-.326,2.477,2.477,0,0,0-.425-2.306l-3.172-3.972a6.323,6.323,0,0,0-6.688-2.141l-.2.057a5.277,5.277,0,0,0-9.61,2.735l-.253.072a6.324,6.324,0,0,0-4.558,5.342l-.605,5.046a2.475,2.475,0,0,0,.853,2.184c.011.009.022.016.033.025l1.39,9.258a2.7,2.7,0,0,0-1.3,3.15l1.545,8.683.015.066a9.14,9.14,0,0,0,9.529,6.3l2.307-.265a5.4,5.4,0,0,0,.855-.169,4.5,4.5,0,0,0,2.809-2.25l5.6-1.594a4.5,4.5,0,0,0,3.572.434h0a5.4,5.4,0,0,0,.815-.307l2.1-.991a9.139,9.139,0,0,0,4.78-10.376Zm-4.784,18.642a3.133,3.133,0,0,1-3.982-2.265l-2.279-8.009,4.852-2.352.53,1.862a.811.811,0,0,0,1,.558h0a.81.81,0,0,0,.557-1l-.608-2.137,4.508-2.186,2.2,5.546a7.752,7.752,0,0,1-4.071,8.763l-2.1.99a3.966,3.966,0,0,1-.61.231Zm-12.624,3.537-2.307.265a7.753,7.753,0,0,1-8.076-5.306l-1.046-5.875,4.529-.469.63,2.213a.81.81,0,0,0,1,.557h0a.811.811,0,0,0,.558-1l-.552-1.938,5.816-.6,2.279,8.008a3.133,3.133,0,0,1-2.192,4.023A3.981,3.981,0,0,1,836.327,582.082ZM824.385,568.3a1.364,1.364,0,0,1,.961-1.772,1.844,1.844,0,0,1,.282-.056l8.046-.776a2.392,2.392,0,0,1,2.465,1.622l.37,1.3-11.845,1.226-.264-1.48Zm3.252-23.383,10.061-2.864a5,5,0,0,1,5.273,1.688l3.131,3.92a1.211,1.211,0,0,1,.224,1.147,1.125,1.125,0,0,1-.762.714l-5.124,1.458-.559-1.963a.81.81,0,0,0-1-.558h0a.811.811,0,0,0-.558,1l.559,1.963-7.582,2.159-.559-1.963a.811.811,0,0,0-1-.558h0a.81.81,0,0,0-.557,1l.558,1.963-4.786,1.363a1.217,1.217,0,0,1-1.12-.209,1.122,1.122,0,0,1-.393-1.005l.6-5.047A5,5,0,0,1,827.637,544.912Zm24.817,15.393.58,1.459-10.719,5.2-.37-1.3a2.393,2.393,0,0,1,1.251-2.682l7.227-3.567a1.858,1.858,0,0,1,.28-.106A1.364,1.364,0,0,1,852.454,560.305Zm1.337,1.838Zm-11.9,5.77Zm-4.517,1.285Zm-13.156,1.363Zm9.316-6.206-7.848.757-1.251-8.331a2.491,2.491,0,0,0,.817-.088l4.855-1.382.62,2.177a.81.81,0,0,0,1,.558h0a.811.811,0,0,0,.558-1l-.62-2.178,7.582-2.158.62,2.178a.811.811,0,0,0,1,.558h0a.81.81,0,0,0,.557-1l-.62-2.178,5.124-1.458a2.5,2.5,0,0,0,.552-.232l3.29,7.661-7.159,3.533a3.7,3.7,0,0,0-1.959,4.259l3.023,10.621a4.87,4.87,0,0,0,.866,1.7l-3.932,1.119a4.87,4.87,0,0,0-.16-1.9l-3.023-10.62A3.7,3.7,0,0,0,833.533,564.356Zm-1.7-23.895a3.5,3.5,0,0,1,3.42.886l-5.861,1.669A3.493,3.493,0,0,1,831.837,540.461Z" transform="translate(-56.126 -11.56)" fill="#fff"/>
    </g>
  </g>
</svg>
